<mxfile host="Electron" agent="Mozilla/5.0 (Windows NT 10.0; Win64; x64) AppleWebKit/537.36 (KHTML, like Gecko) draw.io/26.2.2 Chrome/134.0.6998.178 Electron/35.1.2 Safari/537.36" version="26.2.2">
  <diagram name="Page-1" id="1koTbxVyu0m_SG0vViTK">
    <mxGraphModel dx="1190" dy="841" grid="1" gridSize="10" guides="1" tooltips="1" connect="1" arrows="1" fold="1" page="1" pageScale="1" pageWidth="1800" pageHeight="1200" math="0" shadow="0">
      <root>
        <mxCell id="0" />
        <mxCell id="1" parent="0" />
        <mxCell id="-09GqD7vYZgRkRjQ0-ax-1" value="Tool Carriage" style="swimlane;fontStyle=0;childLayout=stackLayout;horizontal=1;startSize=20;horizontalStack=0;resizeParent=1;resizeParentMax=0;resizeLast=0;collapsible=0;marginBottom=0;whiteSpace=wrap;html=1;rounded=1;container=1;" parent="1" vertex="1">
          <mxGeometry x="880" y="160" width="120" height="80" as="geometry" />
        </mxCell>
        <mxCell id="-09GqD7vYZgRkRjQ0-ax-2" value="Camera" style="text;strokeColor=none;fillColor=none;align=left;verticalAlign=middle;spacingLeft=4;spacingRight=4;overflow=hidden;points=[[0,0.5],[1,0.5]];portConstraint=eastwest;rotatable=0;whiteSpace=wrap;html=1;" parent="-09GqD7vYZgRkRjQ0-ax-1" vertex="1">
          <mxGeometry y="20" width="120" height="20" as="geometry" />
        </mxCell>
        <mxCell id="-09GqD7vYZgRkRjQ0-ax-3" value="Address LEDs" style="text;strokeColor=none;fillColor=none;align=left;verticalAlign=middle;spacingLeft=4;spacingRight=4;overflow=hidden;points=[[0,0.5],[1,0.5]];portConstraint=eastwest;rotatable=0;whiteSpace=wrap;html=1;" parent="-09GqD7vYZgRkRjQ0-ax-1" vertex="1">
          <mxGeometry y="40" width="120" height="20" as="geometry" />
        </mxCell>
        <mxCell id="-09GqD7vYZgRkRjQ0-ax-4" value="Pins" style="text;strokeColor=none;fillColor=none;align=left;verticalAlign=middle;spacingLeft=4;spacingRight=4;overflow=hidden;points=[[0,0.5],[1,0.5]];portConstraint=eastwest;rotatable=0;whiteSpace=wrap;html=1;" parent="-09GqD7vYZgRkRjQ0-ax-1" vertex="1">
          <mxGeometry y="60" width="120" height="20" as="geometry" />
        </mxCell>
        <mxCell id="-09GqD7vYZgRkRjQ0-ax-12" value="Tool Carriage Pins" style="swimlane;fontStyle=0;childLayout=stackLayout;horizontal=1;startSize=20;horizontalStack=0;resizeParent=1;resizeParentMax=0;resizeLast=0;collapsible=0;marginBottom=0;whiteSpace=wrap;html=1;rounded=1;container=1;" parent="1" vertex="1">
          <mxGeometry x="1020" y="160" width="120" height="220" as="geometry" />
        </mxCell>
        <mxCell id="-09GqD7vYZgRkRjQ0-ax-13" value="4P Heater" style="text;strokeColor=#d6b656;fillColor=#fff2cc;align=left;verticalAlign=middle;spacingLeft=4;spacingRight=4;overflow=hidden;points=[[0,0.5],[1,0.5]];portConstraint=eastwest;rotatable=0;whiteSpace=wrap;html=1;" parent="-09GqD7vYZgRkRjQ0-ax-12" vertex="1">
          <mxGeometry y="20" width="120" height="20" as="geometry" />
        </mxCell>
        <mxCell id="-09GqD7vYZgRkRjQ0-ax-14" value="2P Heater Temp" style="text;strokeColor=#6c8ebf;fillColor=#dae8fc;align=left;verticalAlign=middle;spacingLeft=4;spacingRight=4;overflow=hidden;points=[[0,0.5],[1,0.5]];portConstraint=eastwest;rotatable=0;whiteSpace=wrap;html=1;" parent="-09GqD7vYZgRkRjQ0-ax-12" vertex="1">
          <mxGeometry y="40" width="120" height="20" as="geometry" />
        </mxCell>
        <mxCell id="B7QFjlorRXZImNpkXBTe-34" value="2P I2C Accel" style="text;strokeColor=#23445d;fillColor=#bac8d3;align=left;verticalAlign=middle;spacingLeft=4;spacingRight=4;overflow=hidden;points=[[0,0.5],[1,0.5]];portConstraint=eastwest;rotatable=0;whiteSpace=wrap;html=1;" parent="-09GqD7vYZgRkRjQ0-ax-12" vertex="1">
          <mxGeometry y="60" width="120" height="20" as="geometry" />
        </mxCell>
        <mxCell id="-09GqD7vYZgRkRjQ0-ax-15" value="2P System Power" style="text;strokeColor=#0e8088;fillColor=#b0e3e6;align=left;verticalAlign=middle;spacingLeft=4;spacingRight=4;overflow=hidden;points=[[0,0.5],[1,0.5]];portConstraint=eastwest;rotatable=0;whiteSpace=wrap;html=1;" parent="-09GqD7vYZgRkRjQ0-ax-12" vertex="1">
          <mxGeometry y="80" width="120" height="20" as="geometry" />
        </mxCell>
        <mxCell id="-09GqD7vYZgRkRjQ0-ax-20" value="2P 5V Power" style="text;strokeColor=#9673a6;fillColor=#e1d5e7;align=left;verticalAlign=middle;spacingLeft=4;spacingRight=4;overflow=hidden;points=[[0,0.5],[1,0.5]];portConstraint=eastwest;rotatable=0;whiteSpace=wrap;html=1;" parent="-09GqD7vYZgRkRjQ0-ax-12" vertex="1">
          <mxGeometry y="100" width="120" height="20" as="geometry" />
        </mxCell>
        <mxCell id="-09GqD7vYZgRkRjQ0-ax-19" value="1P Adj Fan" style="text;strokeColor=#b85450;fillColor=#f8cecc;align=left;verticalAlign=middle;spacingLeft=4;spacingRight=4;overflow=hidden;points=[[0,0.5],[1,0.5]];portConstraint=eastwest;rotatable=0;whiteSpace=wrap;html=1;" parent="-09GqD7vYZgRkRjQ0-ax-12" vertex="1">
          <mxGeometry y="120" width="120" height="20" as="geometry" />
        </mxCell>
        <mxCell id="-09GqD7vYZgRkRjQ0-ax-21" value="1P Address LED" style="text;strokeColor=#82b366;fillColor=#d5e8d4;align=left;verticalAlign=middle;spacingLeft=4;spacingRight=4;overflow=hidden;points=[[0,0.5],[1,0.5]];portConstraint=eastwest;rotatable=0;whiteSpace=wrap;html=1;" parent="-09GqD7vYZgRkRjQ0-ax-12" vertex="1">
          <mxGeometry y="140" width="120" height="20" as="geometry" />
        </mxCell>
        <mxCell id="-09GqD7vYZgRkRjQ0-ax-18" value="2P GPIO" style="text;strokeColor=#d79b00;fillColor=#ffe6cc;align=left;verticalAlign=middle;spacingLeft=4;spacingRight=4;overflow=hidden;points=[[0,0.5],[1,0.5]];portConstraint=eastwest;rotatable=0;whiteSpace=wrap;html=1;" parent="-09GqD7vYZgRkRjQ0-ax-12" vertex="1">
          <mxGeometry y="160" width="120" height="20" as="geometry" />
        </mxCell>
        <mxCell id="B7QFjlorRXZImNpkXBTe-50" value="4P Motor" style="text;strokeColor=#56517e;fillColor=#d0cee2;align=left;verticalAlign=middle;spacingLeft=4;spacingRight=4;overflow=hidden;points=[[0,0.5],[1,0.5]];portConstraint=eastwest;rotatable=0;whiteSpace=wrap;html=1;" parent="-09GqD7vYZgRkRjQ0-ax-12" vertex="1">
          <mxGeometry y="180" width="120" height="20" as="geometry" />
        </mxCell>
        <mxCell id="B7QFjlorRXZImNpkXBTe-44" value="2P GND" style="text;align=left;verticalAlign=middle;spacingLeft=4;spacingRight=4;overflow=hidden;points=[[0,0.5],[1,0.5]];portConstraint=eastwest;rotatable=0;whiteSpace=wrap;html=1;" parent="-09GqD7vYZgRkRjQ0-ax-12" vertex="1">
          <mxGeometry y="200" width="120" height="20" as="geometry" />
        </mxCell>
        <mxCell id="-09GqD7vYZgRkRjQ0-ax-25" value="Inputs" style="swimlane;fontStyle=0;childLayout=stackLayout;horizontal=1;startSize=20;horizontalStack=0;resizeParent=1;resizeParentMax=0;resizeLast=0;collapsible=0;marginBottom=0;whiteSpace=wrap;html=1;rounded=1;container=1;" parent="1" vertex="1">
          <mxGeometry x="880" y="260" width="120" height="40" as="geometry" />
        </mxCell>
        <mxCell id="-09GqD7vYZgRkRjQ0-ax-26" value="USB 2.0 PD 100W" style="text;strokeColor=none;fillColor=none;align=left;verticalAlign=middle;spacingLeft=4;spacingRight=4;overflow=hidden;points=[[0,0.5],[1,0.5]];portConstraint=eastwest;rotatable=0;whiteSpace=wrap;html=1;" parent="-09GqD7vYZgRkRjQ0-ax-25" vertex="1">
          <mxGeometry y="20" width="120" height="20" as="geometry" />
        </mxCell>
        <mxCell id="B7QFjlorRXZImNpkXBTe-55" value="" style="rounded=1;whiteSpace=wrap;html=1;fontFamily=Helvetica;fontSize=11;fontColor=default;labelBackgroundColor=default;absoluteArcSize=1;container=1;dropTarget=1;collapsible=0;recursiveResize=0;" parent="1" vertex="1">
          <mxGeometry x="1240" y="160" width="50" height="50" as="geometry" />
        </mxCell>
        <mxCell id="B7QFjlorRXZImNpkXBTe-51" value="" style="ellipse;whiteSpace=wrap;html=1;aspect=fixed;fillColor=#d0cee2;strokeColor=#56517e;" parent="B7QFjlorRXZImNpkXBTe-55" vertex="1">
          <mxGeometry x="30" y="10" width="10" height="10" as="geometry" />
        </mxCell>
        <mxCell id="B7QFjlorRXZImNpkXBTe-52" value="" style="ellipse;whiteSpace=wrap;html=1;aspect=fixed;fillColor=#d0cee2;strokeColor=#56517e;" parent="B7QFjlorRXZImNpkXBTe-55" vertex="1">
          <mxGeometry x="30" y="30" width="10" height="10" as="geometry" />
        </mxCell>
        <mxCell id="B7QFjlorRXZImNpkXBTe-53" value="" style="ellipse;whiteSpace=wrap;html=1;aspect=fixed;fillColor=#d0cee2;strokeColor=#56517e;" parent="B7QFjlorRXZImNpkXBTe-55" vertex="1">
          <mxGeometry x="10" y="10" width="10" height="10" as="geometry" />
        </mxCell>
        <mxCell id="B7QFjlorRXZImNpkXBTe-54" value="" style="ellipse;whiteSpace=wrap;html=1;aspect=fixed;fillColor=#d0cee2;strokeColor=#56517e;" parent="B7QFjlorRXZImNpkXBTe-55" vertex="1">
          <mxGeometry x="10" y="30" width="10" height="10" as="geometry" />
        </mxCell>
        <mxCell id="B7QFjlorRXZImNpkXBTe-56" value="" style="rounded=1;whiteSpace=wrap;html=1;" parent="1" vertex="1">
          <mxGeometry x="1160" y="160" width="50" height="50" as="geometry" />
        </mxCell>
        <mxCell id="B7QFjlorRXZImNpkXBTe-40" value="" style="ellipse;whiteSpace=wrap;html=1;aspect=fixed;fillColor=#fff2cc;strokeColor=#d6b656;" parent="1" vertex="1">
          <mxGeometry x="1190" y="170" width="10" height="10" as="geometry" />
        </mxCell>
        <mxCell id="B7QFjlorRXZImNpkXBTe-41" value="" style="ellipse;whiteSpace=wrap;html=1;aspect=fixed;fillColor=#fff2cc;strokeColor=#d6b656;" parent="1" vertex="1">
          <mxGeometry x="1190" y="190" width="10" height="10" as="geometry" />
        </mxCell>
        <mxCell id="B7QFjlorRXZImNpkXBTe-42" value="" style="ellipse;whiteSpace=wrap;html=1;aspect=fixed;fillColor=#fff2cc;strokeColor=#d6b656;" parent="1" vertex="1">
          <mxGeometry x="1170" y="170" width="10" height="10" as="geometry" />
        </mxCell>
        <mxCell id="B7QFjlorRXZImNpkXBTe-43" value="" style="ellipse;whiteSpace=wrap;html=1;aspect=fixed;fillColor=#fff2cc;strokeColor=#d6b656;" parent="1" vertex="1">
          <mxGeometry x="1170" y="190" width="10" height="10" as="geometry" />
        </mxCell>
        <mxCell id="B7QFjlorRXZImNpkXBTe-57" value="" style="rounded=1;whiteSpace=wrap;html=1;fontFamily=Helvetica;fontSize=11;fontColor=default;labelBackgroundColor=default;absoluteArcSize=1;container=1;dropTarget=1;collapsible=0;recursiveResize=0;" parent="1" vertex="1">
          <mxGeometry x="1210" y="160" width="30" height="50" as="geometry" />
        </mxCell>
        <mxCell id="B7QFjlorRXZImNpkXBTe-22" value="" style="ellipse;whiteSpace=wrap;html=1;aspect=fixed;fillColor=#dae8fc;strokeColor=#6c8ebf;" parent="B7QFjlorRXZImNpkXBTe-57" vertex="1">
          <mxGeometry x="10" y="10" width="10" height="10" as="geometry" />
        </mxCell>
        <mxCell id="B7QFjlorRXZImNpkXBTe-46" value="" style="ellipse;whiteSpace=wrap;html=1;aspect=fixed;fillColor=#dae8fc;strokeColor=#6c8ebf;" parent="B7QFjlorRXZImNpkXBTe-57" vertex="1">
          <mxGeometry x="10" y="30" width="10" height="10" as="geometry" />
        </mxCell>
        <mxCell id="B7QFjlorRXZImNpkXBTe-58" value="" style="rounded=1;whiteSpace=wrap;html=1;fontFamily=Helvetica;fontSize=11;fontColor=default;labelBackgroundColor=default;absoluteArcSize=1;container=1;dropTarget=1;collapsible=0;recursiveResize=0;" parent="1" vertex="1">
          <mxGeometry x="1290" y="160" width="70" height="50" as="geometry" />
        </mxCell>
        <mxCell id="B7QFjlorRXZImNpkXBTe-59" value="" style="ellipse;whiteSpace=wrap;html=1;aspect=fixed;fillColor=#ffe6cc;strokeColor=#d79b00;" parent="B7QFjlorRXZImNpkXBTe-58" vertex="1">
          <mxGeometry x="30" y="10" width="10" height="10" as="geometry" />
        </mxCell>
        <mxCell id="B7QFjlorRXZImNpkXBTe-60" value="" style="ellipse;whiteSpace=wrap;html=1;aspect=fixed;fillColor=#ffe6cc;strokeColor=#d79b00;" parent="B7QFjlorRXZImNpkXBTe-58" vertex="1">
          <mxGeometry x="30" y="30" width="10" height="10" as="geometry" />
        </mxCell>
        <mxCell id="B7QFjlorRXZImNpkXBTe-61" value="" style="ellipse;whiteSpace=wrap;html=1;aspect=fixed;fillColor=#f8cecc;strokeColor=#b85450;" parent="B7QFjlorRXZImNpkXBTe-58" vertex="1">
          <mxGeometry x="10" y="10" width="10" height="10" as="geometry" />
        </mxCell>
        <mxCell id="B7QFjlorRXZImNpkXBTe-62" value="" style="ellipse;whiteSpace=wrap;html=1;aspect=fixed;fillColor=#d5e8d4;strokeColor=#82b366;" parent="B7QFjlorRXZImNpkXBTe-58" vertex="1">
          <mxGeometry x="10" y="30" width="10" height="10" as="geometry" />
        </mxCell>
        <mxCell id="B7QFjlorRXZImNpkXBTe-63" value="" style="ellipse;whiteSpace=wrap;html=1;aspect=fixed;fillColor=#bac8d3;strokeColor=#23445d;" parent="B7QFjlorRXZImNpkXBTe-58" vertex="1">
          <mxGeometry x="50" y="10" width="10" height="10" as="geometry" />
        </mxCell>
        <mxCell id="B7QFjlorRXZImNpkXBTe-64" value="" style="ellipse;whiteSpace=wrap;html=1;aspect=fixed;fillColor=#bac8d3;strokeColor=#23445d;" parent="B7QFjlorRXZImNpkXBTe-58" vertex="1">
          <mxGeometry x="50" y="30" width="10" height="10" as="geometry" />
        </mxCell>
        <mxCell id="B7QFjlorRXZImNpkXBTe-70" value="" style="rounded=1;whiteSpace=wrap;html=1;fontFamily=Helvetica;fontSize=11;fontColor=default;labelBackgroundColor=default;absoluteArcSize=1;container=1;dropTarget=1;collapsible=0;recursiveResize=0;" parent="1" vertex="1">
          <mxGeometry x="1360" y="160" width="70" height="50" as="geometry" />
        </mxCell>
        <mxCell id="B7QFjlorRXZImNpkXBTe-71" value="" style="ellipse;whiteSpace=wrap;html=1;aspect=fixed;" parent="B7QFjlorRXZImNpkXBTe-70" vertex="1">
          <mxGeometry x="30" y="10" width="10" height="10" as="geometry" />
        </mxCell>
        <mxCell id="B7QFjlorRXZImNpkXBTe-72" value="" style="ellipse;whiteSpace=wrap;html=1;aspect=fixed;" parent="B7QFjlorRXZImNpkXBTe-70" vertex="1">
          <mxGeometry x="30" y="30" width="10" height="10" as="geometry" />
        </mxCell>
        <mxCell id="B7QFjlorRXZImNpkXBTe-73" value="" style="ellipse;whiteSpace=wrap;html=1;aspect=fixed;fillColor=#e1d5e7;strokeColor=#9673a6;" parent="B7QFjlorRXZImNpkXBTe-70" vertex="1">
          <mxGeometry x="10" y="10" width="10" height="10" as="geometry" />
        </mxCell>
        <mxCell id="B7QFjlorRXZImNpkXBTe-74" value="" style="ellipse;whiteSpace=wrap;html=1;aspect=fixed;fillColor=#e1d5e7;strokeColor=#9673a6;" parent="B7QFjlorRXZImNpkXBTe-70" vertex="1">
          <mxGeometry x="10" y="30" width="10" height="10" as="geometry" />
        </mxCell>
        <mxCell id="B7QFjlorRXZImNpkXBTe-75" value="" style="ellipse;whiteSpace=wrap;html=1;aspect=fixed;fillColor=#b0e3e6;strokeColor=#0e8088;" parent="B7QFjlorRXZImNpkXBTe-70" vertex="1">
          <mxGeometry x="50" y="10" width="10" height="10" as="geometry" />
        </mxCell>
        <mxCell id="B7QFjlorRXZImNpkXBTe-76" value="" style="ellipse;whiteSpace=wrap;html=1;aspect=fixed;fillColor=#b0e3e6;strokeColor=#0e8088;" parent="B7QFjlorRXZImNpkXBTe-70" vertex="1">
          <mxGeometry x="50" y="30" width="10" height="10" as="geometry" />
        </mxCell>
        <mxCell id="UdTMku777LsirgwFu7B1-1" value="Motors" style="rounded=0;whiteSpace=wrap;html=1;" parent="1" vertex="1">
          <mxGeometry x="1000" y="520" width="120" height="160" as="geometry" />
        </mxCell>
        <mxCell id="UdTMku777LsirgwFu7B1-2" value="Motors" style="rounded=0;whiteSpace=wrap;html=1;" parent="1" vertex="1">
          <mxGeometry x="1520" y="520" width="120" height="160" as="geometry" />
        </mxCell>
        <mxCell id="UdTMku777LsirgwFu7B1-3" value="" style="rounded=0;whiteSpace=wrap;html=1;" parent="1" vertex="1">
          <mxGeometry x="1000" y="680" width="640" height="60" as="geometry" />
        </mxCell>
        <mxCell id="UdTMku777LsirgwFu7B1-4" value="Print Head" style="rounded=0;whiteSpace=wrap;html=1;" parent="1" vertex="1">
          <mxGeometry x="1260" y="580" width="120" height="100" as="geometry" />
        </mxCell>
        <mxCell id="UdTMku777LsirgwFu7B1-6" value="" style="shape=trapezoid;perimeter=trapezoidPerimeter;whiteSpace=wrap;html=1;fixedSize=1;" parent="1" vertex="1">
          <mxGeometry x="1260" y="520" width="120" height="60" as="geometry" />
        </mxCell>
        <mxCell id="UdTMku777LsirgwFu7B1-7" value="" style="rounded=0;whiteSpace=wrap;html=1;" parent="1" vertex="1">
          <mxGeometry x="1000" y="740" width="60" height="440" as="geometry" />
        </mxCell>
        <mxCell id="UdTMku777LsirgwFu7B1-8" value="" style="rounded=0;whiteSpace=wrap;html=1;" parent="1" vertex="1">
          <mxGeometry x="1580" y="740" width="60" height="440" as="geometry" />
        </mxCell>
        <mxCell id="UdTMku777LsirgwFu7B1-9" value="" style="rounded=0;whiteSpace=wrap;html=1;" parent="1" vertex="1">
          <mxGeometry x="1060" y="1030" width="520" height="60" as="geometry" />
        </mxCell>
        <mxCell id="UdTMku777LsirgwFu7B1-10" value="Electronics box" style="rounded=0;whiteSpace=wrap;html=1;" parent="1" vertex="1">
          <mxGeometry x="1060" y="1090" width="520" height="90" as="geometry" />
        </mxCell>
        <mxCell id="UdTMku777LsirgwFu7B1-11" value="Moving Bed" style="rounded=0;whiteSpace=wrap;html=1;" parent="1" vertex="1">
          <mxGeometry x="1080" y="920" width="480" height="40" as="geometry" />
        </mxCell>
        <mxCell id="tqBjogt0iOUtp1MA-j1x-54" value="" style="rounded=0;whiteSpace=wrap;html=1;fontFamily=Helvetica;fontSize=11;fontColor=default;labelBackgroundColor=default;absoluteArcSize=1;container=1;dropTarget=1;collapsible=0;recursiveResize=0;" parent="1" vertex="1">
          <mxGeometry x="40" y="80" width="800" height="800" as="geometry" />
        </mxCell>
        <mxCell id="iKL3acUNgVN4E1kFw8Ze-22" value="Nozzle Position Checker" style="rounded=0;whiteSpace=wrap;html=1;" vertex="1" parent="tqBjogt0iOUtp1MA-j1x-54">
          <mxGeometry x="80" y="640" width="60" height="60" as="geometry" />
        </mxCell>
        <mxCell id="iKL3acUNgVN4E1kFw8Ze-19" value="Bed Size: 580 x 560mm&lt;div&gt;Actual Heated Area: 500 x 500mm&lt;/div&gt;" style="rounded=0;whiteSpace=wrap;html=1;" vertex="1" parent="tqBjogt0iOUtp1MA-j1x-54">
          <mxGeometry x="150" y="200" width="500" height="500" as="geometry" />
        </mxCell>
        <mxCell id="tqBjogt0iOUtp1MA-j1x-2" value="" style="rounded=0;whiteSpace=wrap;html=1;" parent="tqBjogt0iOUtp1MA-j1x-54" vertex="1">
          <mxGeometry width="40" height="40" as="geometry" />
        </mxCell>
        <mxCell id="tqBjogt0iOUtp1MA-j1x-3" value="" style="rounded=0;whiteSpace=wrap;html=1;" parent="tqBjogt0iOUtp1MA-j1x-54" vertex="1">
          <mxGeometry x="760" width="40" height="40" as="geometry" />
        </mxCell>
        <mxCell id="tqBjogt0iOUtp1MA-j1x-4" value="" style="rounded=0;whiteSpace=wrap;html=1;" parent="tqBjogt0iOUtp1MA-j1x-54" vertex="1">
          <mxGeometry x="760" y="760" width="40" height="40" as="geometry" />
        </mxCell>
        <mxCell id="tqBjogt0iOUtp1MA-j1x-5" value="" style="rounded=0;whiteSpace=wrap;html=1;" parent="tqBjogt0iOUtp1MA-j1x-54" vertex="1">
          <mxGeometry y="760" width="40" height="40" as="geometry" />
        </mxCell>
        <mxCell id="tqBjogt0iOUtp1MA-j1x-6" value="" style="rounded=0;whiteSpace=wrap;html=1;" parent="tqBjogt0iOUtp1MA-j1x-54" vertex="1">
          <mxGeometry x="20" y="40" width="20" height="720" as="geometry" />
        </mxCell>
        <mxCell id="tqBjogt0iOUtp1MA-j1x-7" value="" style="rounded=0;whiteSpace=wrap;html=1;" parent="tqBjogt0iOUtp1MA-j1x-54" vertex="1">
          <mxGeometry x="760" y="40" width="20" height="720" as="geometry" />
        </mxCell>
        <mxCell id="tqBjogt0iOUtp1MA-j1x-8" value="" style="rounded=0;whiteSpace=wrap;html=1;" parent="tqBjogt0iOUtp1MA-j1x-54" vertex="1">
          <mxGeometry x="40" y="20" width="720" height="20" as="geometry" />
        </mxCell>
        <mxCell id="tqBjogt0iOUtp1MA-j1x-20" value="" style="rounded=1;whiteSpace=wrap;html=1;fontFamily=Helvetica;fontSize=11;fontColor=default;labelBackgroundColor=default;absoluteArcSize=1;container=1;dropTarget=1;collapsible=0;recursiveResize=0;arcSize=6;" parent="tqBjogt0iOUtp1MA-j1x-54" vertex="1">
          <mxGeometry x="10" y="40" width="40" height="40" as="geometry" />
        </mxCell>
        <mxCell id="tqBjogt0iOUtp1MA-j1x-24" value="" style="ellipse;whiteSpace=wrap;html=1;aspect=fixed;" parent="tqBjogt0iOUtp1MA-j1x-20" vertex="1">
          <mxGeometry x="10" y="10" width="20" height="20" as="geometry" />
        </mxCell>
        <mxCell id="tqBjogt0iOUtp1MA-j1x-25" value="" style="rounded=1;whiteSpace=wrap;html=1;fontFamily=Helvetica;fontSize=11;fontColor=default;labelBackgroundColor=default;absoluteArcSize=1;container=1;dropTarget=1;collapsible=0;recursiveResize=0;arcSize=6;" parent="tqBjogt0iOUtp1MA-j1x-54" vertex="1">
          <mxGeometry x="10" y="720" width="40" height="40" as="geometry" />
        </mxCell>
        <mxCell id="tqBjogt0iOUtp1MA-j1x-26" value="" style="ellipse;whiteSpace=wrap;html=1;aspect=fixed;" parent="tqBjogt0iOUtp1MA-j1x-25" vertex="1">
          <mxGeometry x="10" y="10" width="20" height="20" as="geometry" />
        </mxCell>
        <mxCell id="tqBjogt0iOUtp1MA-j1x-27" value="" style="rounded=1;whiteSpace=wrap;html=1;fontFamily=Helvetica;fontSize=11;fontColor=default;labelBackgroundColor=default;absoluteArcSize=1;container=1;dropTarget=1;collapsible=0;recursiveResize=0;arcSize=6;" parent="tqBjogt0iOUtp1MA-j1x-54" vertex="1">
          <mxGeometry x="750" y="720" width="40" height="40" as="geometry" />
        </mxCell>
        <mxCell id="tqBjogt0iOUtp1MA-j1x-28" value="" style="ellipse;whiteSpace=wrap;html=1;aspect=fixed;" parent="tqBjogt0iOUtp1MA-j1x-27" vertex="1">
          <mxGeometry x="10" y="10" width="20" height="20" as="geometry" />
        </mxCell>
        <mxCell id="tqBjogt0iOUtp1MA-j1x-29" value="" style="rounded=1;whiteSpace=wrap;html=1;fontFamily=Helvetica;fontSize=11;fontColor=default;labelBackgroundColor=default;absoluteArcSize=1;container=1;dropTarget=1;collapsible=0;recursiveResize=0;arcSize=6;" parent="tqBjogt0iOUtp1MA-j1x-54" vertex="1">
          <mxGeometry x="750" y="40" width="40" height="40" as="geometry" />
        </mxCell>
        <mxCell id="tqBjogt0iOUtp1MA-j1x-30" value="" style="ellipse;whiteSpace=wrap;html=1;aspect=fixed;" parent="tqBjogt0iOUtp1MA-j1x-29" vertex="1">
          <mxGeometry x="10" y="10" width="20" height="20" as="geometry" />
        </mxCell>
        <mxCell id="tqBjogt0iOUtp1MA-j1x-43" style="edgeStyle=none;shape=connector;rounded=0;orthogonalLoop=1;jettySize=auto;html=1;exitX=0.5;exitY=0;exitDx=0;exitDy=0;entryX=0.5;entryY=0;entryDx=0;entryDy=0;dashed=1;strokeColor=#FFB366;strokeWidth=3;align=center;verticalAlign=middle;fontFamily=Helvetica;fontSize=11;fontColor=default;labelBackgroundColor=default;startFill=0;endArrow=none;" parent="tqBjogt0iOUtp1MA-j1x-54" source="tqBjogt0iOUtp1MA-j1x-24" target="tqBjogt0iOUtp1MA-j1x-30" edge="1">
          <mxGeometry relative="1" as="geometry" />
        </mxCell>
        <mxCell id="tqBjogt0iOUtp1MA-j1x-44" style="edgeStyle=none;shape=connector;rounded=0;orthogonalLoop=1;jettySize=auto;html=1;exitX=1;exitY=0.5;exitDx=0;exitDy=0;dashed=1;strokeColor=#FFB366;strokeWidth=3;align=center;verticalAlign=middle;fontFamily=Helvetica;fontSize=11;fontColor=default;labelBackgroundColor=default;startFill=0;endArrow=none;entryX=1;entryY=0.5;entryDx=0;entryDy=0;" parent="tqBjogt0iOUtp1MA-j1x-54" source="tqBjogt0iOUtp1MA-j1x-30" target="tqBjogt0iOUtp1MA-j1x-19" edge="1">
          <mxGeometry relative="1" as="geometry">
            <mxPoint x="900" y="290" as="targetPoint" />
          </mxGeometry>
        </mxCell>
        <mxCell id="tqBjogt0iOUtp1MA-j1x-50" style="edgeStyle=none;shape=connector;rounded=0;orthogonalLoop=1;jettySize=auto;html=1;exitX=0.5;exitY=0;exitDx=0;exitDy=0;entryX=0.5;entryY=0;entryDx=0;entryDy=0;dashed=1;strokeColor=#6c8ebf;strokeWidth=3;align=center;verticalAlign=middle;fontFamily=Helvetica;fontSize=11;fontColor=default;labelBackgroundColor=default;startFill=0;endArrow=none;fillColor=#dae8fc;" parent="tqBjogt0iOUtp1MA-j1x-54" source="tqBjogt0iOUtp1MA-j1x-30" target="tqBjogt0iOUtp1MA-j1x-24" edge="1">
          <mxGeometry relative="1" as="geometry" />
        </mxCell>
        <mxCell id="tqBjogt0iOUtp1MA-j1x-51" style="edgeStyle=none;shape=connector;rounded=0;orthogonalLoop=1;jettySize=auto;html=1;exitX=0;exitY=0.5;exitDx=0;exitDy=0;dashed=1;strokeColor=#6c8ebf;strokeWidth=3;align=center;verticalAlign=middle;fontFamily=Helvetica;fontSize=11;fontColor=default;labelBackgroundColor=default;startFill=0;endArrow=none;fillColor=#dae8fc;entryX=0;entryY=0.5;entryDx=0;entryDy=0;" parent="tqBjogt0iOUtp1MA-j1x-54" source="tqBjogt0iOUtp1MA-j1x-24" target="tqBjogt0iOUtp1MA-j1x-16" edge="1">
          <mxGeometry relative="1" as="geometry">
            <mxPoint x="-20" y="350" as="targetPoint" />
          </mxGeometry>
        </mxCell>
        <mxCell id="tqBjogt0iOUtp1MA-j1x-31" style="rounded=0;orthogonalLoop=1;jettySize=auto;html=1;exitX=0;exitY=0.5;exitDx=0;exitDy=0;entryX=0;entryY=0.5;entryDx=0;entryDy=0;endArrow=none;startFill=0;strokeWidth=3;strokeColor=#FFB366;dashed=1;" parent="tqBjogt0iOUtp1MA-j1x-54" source="tqBjogt0iOUtp1MA-j1x-26" target="tqBjogt0iOUtp1MA-j1x-24" edge="1">
          <mxGeometry relative="1" as="geometry" />
        </mxCell>
        <mxCell id="tqBjogt0iOUtp1MA-j1x-35" style="edgeStyle=none;shape=connector;rounded=0;orthogonalLoop=1;jettySize=auto;html=1;exitX=1;exitY=0.5;exitDx=0;exitDy=0;entryX=0;entryY=0.5;entryDx=0;entryDy=0;strokeColor=#FFB366;strokeWidth=3;align=center;verticalAlign=middle;fontFamily=Helvetica;fontSize=11;fontColor=default;labelBackgroundColor=default;startFill=0;endArrow=none;dashed=1;" parent="tqBjogt0iOUtp1MA-j1x-54" source="tqBjogt0iOUtp1MA-j1x-26" target="tqBjogt0iOUtp1MA-j1x-17" edge="1">
          <mxGeometry relative="1" as="geometry" />
        </mxCell>
        <mxCell id="tqBjogt0iOUtp1MA-j1x-47" style="edgeStyle=none;shape=connector;rounded=0;orthogonalLoop=1;jettySize=auto;html=1;exitX=0;exitY=0.5;exitDx=0;exitDy=0;entryX=1;entryY=0.5;entryDx=0;entryDy=0;dashed=1;strokeColor=#6c8ebf;strokeWidth=3;align=center;verticalAlign=middle;fontFamily=Helvetica;fontSize=11;fontColor=default;labelBackgroundColor=default;startFill=0;endArrow=none;fillColor=#dae8fc;" parent="tqBjogt0iOUtp1MA-j1x-54" source="tqBjogt0iOUtp1MA-j1x-28" target="tqBjogt0iOUtp1MA-j1x-18" edge="1">
          <mxGeometry relative="1" as="geometry" />
        </mxCell>
        <mxCell id="tqBjogt0iOUtp1MA-j1x-49" style="edgeStyle=none;shape=connector;rounded=0;orthogonalLoop=1;jettySize=auto;html=1;exitX=1;exitY=0.5;exitDx=0;exitDy=0;entryX=1;entryY=0.5;entryDx=0;entryDy=0;dashed=1;strokeColor=#6c8ebf;strokeWidth=3;align=center;verticalAlign=middle;fontFamily=Helvetica;fontSize=11;fontColor=default;labelBackgroundColor=default;startFill=0;endArrow=none;fillColor=#dae8fc;" parent="tqBjogt0iOUtp1MA-j1x-54" source="tqBjogt0iOUtp1MA-j1x-28" target="tqBjogt0iOUtp1MA-j1x-30" edge="1">
          <mxGeometry relative="1" as="geometry" />
        </mxCell>
        <mxCell id="iKL3acUNgVN4E1kFw8Ze-21" value="Nozzle&lt;div&gt;Cleaner&lt;/div&gt;" style="rounded=0;whiteSpace=wrap;html=1;" vertex="1" parent="tqBjogt0iOUtp1MA-j1x-54">
          <mxGeometry x="80" y="500" width="60" height="130" as="geometry" />
        </mxCell>
        <mxCell id="tqBjogt0iOUtp1MA-j1x-53" value="" style="group;recursiveResize=0;" parent="tqBjogt0iOUtp1MA-j1x-54" vertex="1" connectable="0">
          <mxGeometry x="10" y="90" width="780" height="110" as="geometry" />
        </mxCell>
        <mxCell id="tqBjogt0iOUtp1MA-j1x-9" value="" style="rounded=0;whiteSpace=wrap;html=1;" parent="tqBjogt0iOUtp1MA-j1x-53" vertex="1">
          <mxGeometry width="40" height="60" as="geometry" />
        </mxCell>
        <mxCell id="tqBjogt0iOUtp1MA-j1x-11" value="" style="rounded=0;whiteSpace=wrap;html=1;" parent="tqBjogt0iOUtp1MA-j1x-53" vertex="1">
          <mxGeometry x="740" width="40" height="60" as="geometry" />
        </mxCell>
        <mxCell id="tqBjogt0iOUtp1MA-j1x-12" value="" style="rounded=0;whiteSpace=wrap;html=1;" parent="tqBjogt0iOUtp1MA-j1x-53" vertex="1">
          <mxGeometry y="20" width="780" height="20" as="geometry" />
        </mxCell>
        <mxCell id="tqBjogt0iOUtp1MA-j1x-16" value="" style="ellipse;whiteSpace=wrap;html=1;aspect=fixed;" parent="tqBjogt0iOUtp1MA-j1x-53" vertex="1">
          <mxGeometry x="10" width="20" height="20" as="geometry" />
        </mxCell>
        <mxCell id="tqBjogt0iOUtp1MA-j1x-17" value="" style="ellipse;whiteSpace=wrap;html=1;aspect=fixed;" parent="tqBjogt0iOUtp1MA-j1x-53" vertex="1">
          <mxGeometry x="30" y="40" width="20" height="20" as="geometry" />
        </mxCell>
        <mxCell id="tqBjogt0iOUtp1MA-j1x-18" value="" style="ellipse;whiteSpace=wrap;html=1;aspect=fixed;" parent="tqBjogt0iOUtp1MA-j1x-53" vertex="1">
          <mxGeometry x="730" y="40" width="20" height="20" as="geometry" />
        </mxCell>
        <mxCell id="tqBjogt0iOUtp1MA-j1x-19" value="" style="ellipse;whiteSpace=wrap;html=1;aspect=fixed;" parent="tqBjogt0iOUtp1MA-j1x-53" vertex="1">
          <mxGeometry x="750" width="20" height="20" as="geometry" />
        </mxCell>
        <mxCell id="tqBjogt0iOUtp1MA-j1x-45" style="edgeStyle=none;shape=connector;rounded=0;orthogonalLoop=1;jettySize=auto;html=1;exitX=0.5;exitY=1;exitDx=0;exitDy=0;entryX=1;entryY=0.25;entryDx=0;entryDy=0;dashed=1;strokeColor=#FFB366;strokeWidth=3;align=center;verticalAlign=middle;fontFamily=Helvetica;fontSize=11;fontColor=default;labelBackgroundColor=default;startFill=0;endArrow=none;" parent="tqBjogt0iOUtp1MA-j1x-53" source="tqBjogt0iOUtp1MA-j1x-19" target="tqBjogt0iOUtp1MA-j1x-14" edge="1">
          <mxGeometry relative="1" as="geometry" />
        </mxCell>
        <mxCell id="tqBjogt0iOUtp1MA-j1x-48" style="edgeStyle=none;shape=connector;rounded=0;orthogonalLoop=1;jettySize=auto;html=1;exitX=0.5;exitY=0;exitDx=0;exitDy=0;entryX=1;entryY=0.75;entryDx=0;entryDy=0;dashed=1;strokeColor=#6c8ebf;strokeWidth=3;align=center;verticalAlign=middle;fontFamily=Helvetica;fontSize=11;fontColor=default;labelBackgroundColor=default;startFill=0;endArrow=none;fillColor=#dae8fc;" parent="tqBjogt0iOUtp1MA-j1x-53" source="tqBjogt0iOUtp1MA-j1x-18" target="tqBjogt0iOUtp1MA-j1x-14" edge="1">
          <mxGeometry relative="1" as="geometry" />
        </mxCell>
        <mxCell id="tqBjogt0iOUtp1MA-j1x-38" style="edgeStyle=none;shape=connector;rounded=0;orthogonalLoop=1;jettySize=auto;html=1;exitX=0.5;exitY=0;exitDx=0;exitDy=0;entryX=0;entryY=0.75;entryDx=0;entryDy=0;strokeColor=#FFB366;strokeWidth=3;align=center;verticalAlign=middle;fontFamily=Helvetica;fontSize=11;fontColor=default;labelBackgroundColor=default;startFill=0;endArrow=none;dashed=1;" parent="tqBjogt0iOUtp1MA-j1x-53" source="tqBjogt0iOUtp1MA-j1x-17" target="tqBjogt0iOUtp1MA-j1x-14" edge="1">
          <mxGeometry relative="1" as="geometry" />
        </mxCell>
        <mxCell id="tqBjogt0iOUtp1MA-j1x-52" style="edgeStyle=none;shape=connector;rounded=0;orthogonalLoop=1;jettySize=auto;html=1;exitX=0.5;exitY=1;exitDx=0;exitDy=0;entryX=0;entryY=0.25;entryDx=0;entryDy=0;dashed=1;strokeColor=#6c8ebf;strokeWidth=3;align=center;verticalAlign=middle;fontFamily=Helvetica;fontSize=11;fontColor=default;labelBackgroundColor=default;startFill=0;endArrow=none;fillColor=#dae8fc;" parent="tqBjogt0iOUtp1MA-j1x-53" source="tqBjogt0iOUtp1MA-j1x-16" target="tqBjogt0iOUtp1MA-j1x-14" edge="1">
          <mxGeometry relative="1" as="geometry" />
        </mxCell>
        <mxCell id="iKL3acUNgVN4E1kFw8Ze-16" value="" style="rounded=0;whiteSpace=wrap;html=1;fillColor=none;strokeColor=none;" vertex="1" parent="tqBjogt0iOUtp1MA-j1x-53">
          <mxGeometry width="780" height="110" as="geometry" />
        </mxCell>
        <mxCell id="iKL3acUNgVN4E1kFw8Ze-20" value="" style="group" vertex="1" connectable="0" parent="tqBjogt0iOUtp1MA-j1x-53">
          <mxGeometry x="60" y="10" width="80" height="100" as="geometry" />
        </mxCell>
        <mxCell id="tqBjogt0iOUtp1MA-j1x-14" value="Tool&lt;div&gt;Carriage&lt;/div&gt;" style="rounded=0;whiteSpace=wrap;html=1;" parent="iKL3acUNgVN4E1kFw8Ze-20" vertex="1">
          <mxGeometry x="10" width="60" height="40" as="geometry" />
        </mxCell>
        <mxCell id="tqBjogt0iOUtp1MA-j1x-15" value="Tool Head" style="rounded=0;whiteSpace=wrap;html=1;" parent="iKL3acUNgVN4E1kFw8Ze-20" vertex="1">
          <mxGeometry y="40" width="80" height="60" as="geometry" />
        </mxCell>
      </root>
    </mxGraphModel>
  </diagram>
</mxfile>
